<svg fill="none" height="100%" width="100%" viewBox="0 0 1080 1080" xmlns:xlink="http://www.w3.org/1999/xlink" xmlns="http://www.w3.org/2000/svg"><defs><radialGradient id="i0" gradientUnits="userSpaceOnUse" spreadMethod="pad" cx="376" cy="-425" r="73.494" fy="-425" fx="376"><stop offset="0%" stop-color="#000057" /><stop stop-opacity="0.5" offset="43%" stop-color="#8080ab" /><stop stop-opacity="0" offset="100%" stop-color="#ffffff" /></radialGradient><linearGradient id="i1" gradientUnits="userSpaceOnUse" spreadMethod="pad" x2="318.634" y2="-418.634" x1="391" y1="-491"><stop offset="0%" stop-color="#00ccff" /><stop offset="50%" stop-color="#00a6ff" /><stop offset="100%" stop-color="#0080ff" /></linearGradient><radialGradient id="i2" gradientUnits="userSpaceOnUse" spreadMethod="pad" cx="258" cy="-277" r="84.143" fy="-277" fx="258"><stop offset="0%" stop-color="#000057" /><stop stop-opacity="0.5" offset="43%" stop-color="#8080ab" /><stop stop-opacity="0" offset="100%" stop-color="#ffffff" /></radialGradient><linearGradient id="i3" gradientUnits="userSpaceOnUse" spreadMethod="pad" x2="194.148" y2="-271.148" x1="277" y1="-354"><stop offset="0%" stop-color="#ff0000" /><stop offset="50%" stop-color="#cd0000" /><stop offset="100%" stop-color="#9b0000" /></linearGradient><radialGradient id="i4" gradientUnits="userSpaceOnUse" spreadMethod="pad" cx="267" cy="-76" r="110.863" fy="-76" fx="267"><stop offset="0%" stop-color="#000057" /><stop stop-opacity="0.5" offset="43%" stop-color="#8080ab" /><stop stop-opacity="0" offset="100%" stop-color="#ffffff" /></radialGradient><linearGradient id="i5" gradientUnits="userSpaceOnUse" spreadMethod="pad" x2="186.376" y2="-68.376" x1="293" y1="-175"><stop offset="0%" stop-color="#007bb8" /><stop offset="51.3%" stop-color="#0060d1" /><stop offset="100%" stop-color="#0044e9" /></linearGradient><radialGradient id="i6" gradientUnits="userSpaceOnUse" spreadMethod="pad" cx="124" cy="-364" r="82.204" fy="-364" fx="124"><stop offset="0%" stop-color="#000057" /><stop stop-opacity="0.5" offset="43%" stop-color="#8080ab" /><stop stop-opacity="0" offset="100%" stop-color="#ffffff" /></radialGradient><linearGradient id="i7" gradientUnits="userSpaceOnUse" spreadMethod="pad" x2="144.06" y2="-356.94" x1="65" y1="-436"><stop offset="0%" stop-color="#1677f1" /><stop offset="60.1%" stop-color="#2047c6" /><stop offset="100%" stop-color="#2b189c" /></linearGradient><radialGradient id="i8" gradientUnits="userSpaceOnUse" spreadMethod="pad" cx="408" cy="-188" r="72.03" fy="-188" fx="408"><stop offset="0%" stop-color="#000057" /><stop stop-opacity="0.5" offset="43%" stop-color="#8080ab" /><stop stop-opacity="0" offset="100%" stop-color="#ffffff" /></radialGradient><linearGradient id="i9" gradientUnits="userSpaceOnUse" spreadMethod="pad" x2="355.724" y2="-181.724" x1="425" y1="-251"><stop offset="0%" stop-color="#fffa00" /><stop offset="50%" stop-color="#ffdb1b" /><stop offset="100%" stop-color="#ffbb36" /></linearGradient><radialGradient id="i10" gradientUnits="userSpaceOnUse" spreadMethod="pad" cx="427" cy="26" r="70.355" fy="26" fx="427"><stop offset="0%" stop-color="#000057" /><stop stop-opacity="0.5" offset="43%" stop-color="#8080ab" /><stop stop-opacity="0" offset="100%" stop-color="#ffffff" /></radialGradient><linearGradient id="i11" gradientUnits="userSpaceOnUse" spreadMethod="pad" x2="373.724" y2="32.276" x1="443" y1="-37"><stop offset="0%" stop-color="#ff0000" /><stop offset="50%" stop-color="#cd0000" /><stop offset="100%" stop-color="#9b0000" /></linearGradient><radialGradient id="i12" gradientUnits="userSpaceOnUse" spreadMethod="pad" cx="410" cy="233" r="65.306" fy="233" fx="410"><stop offset="0%" stop-color="#000057" /><stop stop-opacity="0.5" offset="43%" stop-color="#8080ab" /><stop stop-opacity="0" offset="100%" stop-color="#ffffff" /></radialGradient><linearGradient id="i13" gradientUnits="userSpaceOnUse" spreadMethod="pad" x2="357.696" y2="238.304" x1="422" y1="174"><stop offset="0%" stop-color="#ff4c3c" /><stop offset="51.3%" stop-color="#f7273d" /><stop offset="100%" stop-color="#ee023e" /></linearGradient><radialGradient id="i14" gradientUnits="userSpaceOnUse" spreadMethod="pad" cx="279" cy="98" r="70.355" fy="98" fx="279"><stop offset="0%" stop-color="#000057" /><stop stop-opacity="0.5" offset="43%" stop-color="#8080ab" /><stop stop-opacity="0" offset="100%" stop-color="#ffffff" /></radialGradient><linearGradient id="i15" gradientUnits="userSpaceOnUse" spreadMethod="pad" x2="224.724" y2="104.276" x1="294" y1="35"><stop offset="0%" stop-color="#00fb73" /><stop offset="50%" stop-color="#00d667" /><stop offset="100%" stop-color="#00b25b" /></linearGradient></defs><g id="i16"><g transform="translate(304,1245)"><animateTransform repeatCount="indefinite" type="translate" attributeName="transform" dur="3s" begin="0s" calcMode="spline" values="304 1245; 304 1245; 304 996; 304 996" keyTimes="0; 0.077778; 0.244444; 1" keySplines="0 0 1 1; 0.167 0.167 0.667 1; 0 0 1 1" fill="freeze" /><g transform="scale(0,0)"><animateTransform repeatCount="indefinite" type="scale" attributeName="transform" dur="3s" begin="0s" calcMode="spline" values="0 0; 0 0; 1.05 1.05; 1 1; 1 1" keyTimes="0; 0.077778; 0.244444; 0.372222; 1" keySplines="0 0 1 1; 0.167 0.167 0.667 1; 0.333 0 0 1; 0 0 1 1" fill="freeze" /><g transform="translate(236,-456)"><g transform="matrix(1,0,0,1,0,0)" opacity="0.7" id="i17"><g id="i18"><path fill="#828181" d="M10,439C10,465.51,-95.885,487,-226.5,487C-357.115,487,-463,465.51,-463,439C-463,412.49,-357.115,391,-226.5,391C-95.885,391,10,412.49,10,439Z" /></g></g></g></g></g></g><g id="i16"><g transform="translate(304,1245)"><animateTransform repeatCount="indefinite" type="translate" attributeName="transform" dur="3s" begin="0s" calcMode="spline" values="304 1245; 304 1245; 304 996; 304 996" keyTimes="0; 0.077778; 0.244444; 1" keySplines="0 0 1 1; 0.167 0.167 0.667 1; 0 0 1 1" fill="freeze" /><g transform="scale(0,0)"><animateTransform repeatCount="indefinite" type="scale" attributeName="transform" dur="3s" begin="0s" calcMode="spline" values="0 0; 0 0; 1.05 1.05; 1 1; 1 1" keyTimes="0; 0.077778; 0.244444; 0.372222; 1" keySplines="0 0 1 1; 0.167 0.167 0.667 1; 0.333 0 0 1; 0 0 1 1" fill="freeze" /><g transform="translate(236,-456)"><g id="i19"><g id="i18"><g id="i18"><g id="i18"><path fill="#263238" d="M-90.444,451.919C-90.444,451.919,-378.705,451.748,-378.705,451.748C-413.374,451.73,-441.467,423.614,-441.46,388.945C-441.46,388.945,-441.319,-333.732,-441.319,-333.732C-441.312,-368.421,-413.179,-396.532,-378.49,-396.513C-378.49,-396.513,-90.228,-396.343,-90.228,-396.343C-55.559,-396.322,-27.468,-368.207,-27.474,-333.538C-27.474,-333.538,-27.616,389.14,-27.616,389.14C-27.623,423.829,-55.755,451.94,-90.444,451.919Z" /></g></g></g></g><g id="i18"><g id="i18"><g id="i18"><g id="i18"><path fill="#ffffff" d="M-90.534,-370.782C-90.534,-370.782,-146.423,-370.815,-146.423,-370.815C-153.917,-370.819,-159.996,-364.47,-159.996,-356.636C-159.996,-356.636,-160,-346.498,-160,-346.498C-159.999,-338.663,-166.078,-332.313,-173.572,-332.318C-173.572,-332.318,-282.512,-332.383,-282.512,-332.383C-290.006,-332.387,-296.082,-338.743,-296.081,-346.578C-296.081,-346.578,-296.078,-356.716,-296.078,-356.716C-296.077,-364.551,-302.153,-370.907,-309.648,-370.911C-309.648,-370.911,-329.304,-370.923,-329.304,-370.923C-329.304,-370.923,-378.22,-370.951,-378.22,-370.951C-402.513,-370.964,-422.216,-351.277,-422.221,-326.983C-422.221,-326.983,-422.359,378.401,-422.359,378.401C-422.364,402.685,-402.69,422.374,-378.409,422.389C-378.409,422.389,-90.723,422.556,-90.723,422.556C-66.431,422.571,-46.728,402.884,-46.722,378.59C-46.722,378.59,-46.584,-326.798,-46.584,-326.798C-46.58,-351.079,-66.253,-370.767,-90.534,-370.782Z" /></g></g></g></g></g></g></g></g><g opacity="0" id="i20"><animate repeatCount="indefinite" attributeName="opacity" dur="3s" begin="0s" fill="freeze" values="0; 0; 1; 1" keyTimes="0; 0.3; 0.505556; 1" keySplines="0 0 1 1; 0.333 0 0.667 1; 0 0 1 1" calcMode="spline" /><g transform="translate(540,540) scale(1,1) translate(0,0)"><g id="i21"><g id="i22"><g id="i18"><g id="i18"><g id="i18"><path fill="#263238" d="M-92.326,-330.477C-92.325,-330.288,-99.592,-330.074,-108.557,-330C-117.525,-329.926,-124.793,-330.02,-124.795,-330.209C-124.797,-330.398,-117.53,-330.611,-108.562,-330.685C-99.597,-330.759,-92.328,-330.666,-92.326,-330.477Z" /></g></g></g></g><g id="i19"><g id="i18"><g id="i18"><g id="i18"><path fill="#263238" d="M-92.257,-322.169C-92.256,-321.98,-99.523,-321.767,-108.488,-321.693C-117.456,-321.619,-124.725,-321.712,-124.726,-321.901C-124.728,-322.09,-117.462,-322.304,-108.494,-322.378C-99.529,-322.452,-92.259,-322.358,-92.257,-322.169Z" /></g></g></g></g><g id="i18"><g id="i18"><g id="i18"><g id="i18"><path fill="#263238" d="M-92.188,-313.862C-92.187,-313.673,-99.454,-313.459,-108.419,-313.385C-117.387,-313.311,-124.657,-313.405,-124.658,-313.594C-124.66,-313.783,-117.393,-313.996,-108.425,-314.07C-99.46,-314.144,-92.19,-314.051,-92.188,-313.862Z" /></g></g></g></g></g><g id="i23"><g id="i18"><g id="i18"><g id="i18"><path fill="#263238" d="M-398.01,-305.759C-397.994,-305.775,-397.703,-305.794,-397.159,-305.816C-396.488,-305.838,-395.711,-305.864,-394.792,-305.894C-392.559,-305.947,-389.64,-306.017,-386.056,-306.102C-386.056,-306.102,-386.298,-305.857,-386.298,-305.857C-386.329,-307.794,-386.363,-309.91,-386.4,-312.192C-386.388,-313.37,-386.501,-314.48,-386.386,-315.839C-386.151,-317.195,-384.942,-318.394,-383.455,-318.533C-382.046,-318.561,-380.806,-318.624,-379.28,-318.554C-377.706,-318.362,-376.368,-316.847,-376.415,-315.18C-376.382,-312.226,-376.346,-309.139,-376.31,-305.939C-376.31,-305.939,-376.716,-306.338,-376.716,-306.338C-373.177,-306.374,-369.492,-306.41,-365.694,-306.449C-365.694,-306.449,-366.113,-306.023,-366.113,-306.023C-366.152,-310.462,-366.193,-315.054,-366.235,-319.757C-366.245,-320.93,-366.255,-322.096,-366.265,-323.254C-366.27,-324.333,-366.926,-325.053,-367.815,-325.858C-369.446,-327.465,-371.053,-329.051,-372.633,-330.608C-374.211,-332.165,-375.761,-333.694,-377.281,-335.194C-378.04,-335.943,-378.791,-336.685,-379.534,-337.419C-380.308,-338.165,-380.916,-338.937,-381.813,-339.121C-382.683,-339.355,-383.642,-339.17,-384.342,-338.638C-385.01,-338.074,-385.721,-337.275,-386.394,-336.621C-387.751,-335.252,-389.07,-333.92,-390.348,-332.631C-392.836,-330.047,-395.428,-327.686,-397.311,-325.455C-398.105,-324.223,-397.808,-322.715,-397.865,-321.342C-397.868,-319.976,-397.871,-318.681,-397.874,-317.458C-397.889,-315.077,-397.901,-312.99,-397.912,-311.202C-397.93,-309.604,-397.945,-308.284,-397.957,-307.202C-397.972,-306.278,-397.989,-305.78,-398.01,-305.759C-398.031,-305.738,-398.055,-306.194,-398.086,-307.085C-398.116,-308.15,-398.152,-309.449,-398.196,-311.023C-398.237,-312.826,-398.284,-314.93,-398.338,-317.33C-398.361,-318.576,-398.386,-319.897,-398.412,-321.29C-398.423,-321.995,-398.433,-322.717,-398.445,-323.457C-398.452,-324.24,-398.249,-325.047,-397.837,-325.763C-395.798,-328.261,-393.364,-330.474,-390.858,-333.133C-389.59,-334.432,-388.281,-335.773,-386.934,-337.153C-386.227,-337.847,-385.648,-338.537,-384.807,-339.261C-383.925,-339.938,-382.715,-340.181,-381.611,-339.89C-380.438,-339.632,-379.675,-338.67,-378.965,-337.997C-378.219,-337.267,-377.465,-336.528,-376.703,-335.782C-375.178,-334.288,-373.623,-332.763,-372.04,-331.211C-370.457,-329.656,-368.846,-328.075,-367.212,-326.471C-366.825,-326.061,-366.36,-325.713,-365.982,-325.137C-365.625,-324.588,-365.421,-323.939,-365.404,-323.279C-365.394,-322.115,-365.383,-320.943,-365.372,-319.764C-365.336,-315.061,-365.302,-310.469,-365.268,-306.03C-365.268,-306.03,-365.264,-305.607,-365.264,-305.607C-365.264,-305.607,-365.687,-305.604,-365.687,-305.604C-369.485,-305.58,-373.17,-305.556,-376.709,-305.534C-376.709,-305.534,-377.112,-305.531,-377.112,-305.531C-377.112,-305.531,-377.115,-305.932,-377.115,-305.932C-377.132,-309.132,-377.148,-312.219,-377.163,-315.174C-377.117,-316.505,-378.152,-317.68,-379.39,-317.849C-380.658,-317.916,-382.154,-317.872,-383.388,-317.861C-384.573,-317.763,-385.561,-316.812,-385.764,-315.718C-385.87,-314.611,-385.789,-313.319,-385.812,-312.197C-385.811,-309.914,-385.811,-307.798,-385.81,-305.861C-385.81,-305.861,-385.809,-305.613,-385.809,-305.613C-385.809,-305.613,-386.052,-305.614,-386.052,-305.614C-389.696,-305.64,-392.664,-305.661,-394.934,-305.677C-395.833,-305.692,-396.592,-305.705,-397.248,-305.716C-397.766,-305.729,-398.026,-305.743,-398.01,-305.759Z" /></g></g></g></g><g id="i24"><g id="i22"><g id="i18"><path fill="#455a64" d="M-103.684,82.05C-103.684,82.351,-166.945,82.594,-244.962,82.594C-323.007,82.594,-386.254,82.351,-386.254,82.05C-386.254,81.749,-323.007,81.505,-244.962,81.505C-166.945,81.505,-103.684,81.749,-103.684,82.05Z" /></g></g><g id="i19"><g id="i18"><path fill="#455a64" d="M-103.684,58.519C-103.684,58.82,-166.945,59.064,-244.962,59.064C-323.007,59.064,-386.254,58.82,-386.254,58.519C-386.254,58.218,-323.007,57.975,-244.962,57.975C-166.945,57.975,-103.684,58.218,-103.684,58.519Z" /></g></g><g id="i18"><g id="i18"><path fill="#455a64" d="M-232.449,105.894C-232.449,106.195,-266.881,106.439,-309.347,106.439C-351.827,106.439,-386.254,106.195,-386.254,105.894C-386.254,105.593,-351.827,105.35,-309.347,105.35C-266.881,105.35,-232.449,105.593,-232.449,105.894Z" /></g></g></g><g id="i25"><path fill="#f4f4f4" d="M-402.842,-6.327C-402.842,-6.327,-68.504,-6.424,-68.504,-6.424C-68.504,-6.424,-68.565,-210.888,-68.565,-210.888C-68.565,-210.888,-402.902,-210.791,-402.902,-210.791C-402.902,-210.791,-402.842,-6.327,-402.842,-6.327Z" /></g><g id="i26"><path fill="#ffd7ae" d="M-372.008,-6.338C-372.008,-6.338,-296,-155,-296,-155C-296,-155,-216.808,-54.377,-216.808,-54.377C-216.808,-54.377,-187,-115,-187,-115C-187,-115,-97.599,-6.418,-97.599,-6.418C-97.599,-6.418,-372.008,-6.338,-372.008,-6.338Z" /></g><g id="i27"><g id="i18"><g id="i18"><path fill="#ffd7ae" d="M-151.01,-161.301C-151.005,-144.605,-164.535,-131.068,-181.231,-131.063C-197.927,-131.058,-211.464,-144.588,-211.469,-161.284C-211.474,-177.979,-197.944,-191.516,-181.248,-191.521C-164.552,-191.526,-151.015,-177.997,-151.01,-161.301Z" /></g></g></g><g id="i28"><g id="i18"><path fill="#263238" d="M-69.435,183.648C-69.44,179.274,-69.637,-5.433,-69.929,-278.868C-69.929,-278.868,-69.435,-278.374,-69.435,-278.374C-170.258,-278.359,-283.909,-278.342,-403.733,-278.324C-403.733,-278.324,-403.771,-278.324,-403.771,-278.324C-403.771,-278.324,-403.227,-278.868,-403.227,-278.868C-403.265,-105.898,-403.3,54.181,-403.328,183.648C-403.328,183.648,-403.771,183.205,-403.771,183.205C-201.024,183.474,-73.083,183.643,-69.435,183.648C-73.08,183.653,-201.024,183.823,-403.771,184.091C-403.771,184.091,-404.214,184.091,-404.214,184.091C-404.214,184.091,-404.214,183.648,-404.214,183.648C-404.242,54.181,-404.277,-105.898,-404.315,-278.868C-404.315,-278.868,-404.316,-279.412,-404.316,-279.412C-404.316,-279.412,-403.771,-279.412,-403.771,-279.412C-403.771,-279.412,-403.733,-279.412,-403.733,-279.412C-283.909,-279.394,-170.258,-279.377,-69.435,-279.362C-69.435,-279.362,-68.94,-279.362,-68.94,-279.362C-68.94,-279.362,-68.941,-278.868,-68.941,-278.868C-69.041,-142.016,-69.126,-26.336,-69.186,55.146C-69.243,95.829,-69.287,127.971,-69.318,149.958C-69.344,160.921,-69.364,169.349,-69.377,175.052C-69.39,177.881,-69.399,180.03,-69.406,181.488C-69.416,182.929,-69.435,183.648,-69.435,183.648Z" /></g></g><g id="i29"><g id="i18"><g id="i19"><path fill="#3c92ca" d="M-383.297,165.189C-383.297,165.189,-387.736,165.189,-387.736,165.189C-387.833,165.189,-387.915,165.107,-387.915,165.01C-387.915,165.01,-387.915,153.572,-387.915,153.572C-387.915,153.475,-387.833,153.392,-387.736,153.392C-387.736,153.392,-383.297,153.392,-383.297,153.392C-383.2,153.392,-383.117,153.475,-383.117,153.572C-383.117,153.572,-383.117,165.01,-383.117,165.01C-383.117,165.107,-383.196,165.189,-383.297,165.189Z" /></g><g id="i18"><path fill="#000000" d="M-375.229,144.947C-376.528,143.994,-378.323,144.542,-378.397,144.565C-378.572,144.62,-378.687,144.781,-378.687,144.961C-378.687,144.961,-378.687,148.912,-378.687,148.912C-378.687,150.252,-379.323,151.384,-380.58,152.282C-381.552,152.977,-382.546,153.263,-382.555,153.268C-382.564,153.268,-382.569,153.272,-382.578,153.277C-382.578,153.277,-382.813,153.355,-382.813,153.355C-382.951,153.129,-383.196,152.978,-383.481,152.978C-383.481,152.978,-387.556,152.978,-387.556,152.978C-387.984,152.978,-388.334,153.328,-388.334,153.756C-388.334,153.756,-388.334,164.83,-388.334,164.83C-388.334,165.258,-387.984,165.608,-387.556,165.608C-387.556,165.608,-383.476,165.608,-383.476,165.608C-383.108,165.608,-382.799,165.351,-382.721,165.01C-382.173,165.595,-381.395,165.963,-380.529,165.963C-380.529,165.963,-370.868,165.963,-370.868,165.963C-368.814,165.963,-367.502,164.89,-367.272,163.016C-367.272,163.016,-366.038,155.179,-366.038,155.179C-365.858,154.042,-366.323,152.891,-367.226,152.246C-367.737,151.878,-368.34,151.684,-368.971,151.684C-368.971,151.684,-373.995,151.684,-373.995,151.684C-373.995,151.684,-373.995,148.018,-373.995,148.018C-373.995,146.581,-374.409,145.55,-375.229,144.947ZM-383.536,164.77C-383.536,164.77,-387.501,164.77,-387.501,164.77C-387.501,164.77,-387.501,153.811,-387.501,153.811C-387.501,153.811,-383.536,153.811,-383.536,153.811C-383.536,153.811,-383.536,164.77,-383.536,164.77ZM-368.971,152.517C-368.515,152.517,-368.082,152.656,-367.714,152.923C-367.069,153.388,-366.733,154.221,-366.867,155.05C-366.867,155.05,-368.096,162.892,-368.096,162.892C-368.096,162.897,-368.096,162.901,-368.096,162.906C-368.322,164.739,-369.726,165.125,-370.868,165.125C-370.868,165.125,-380.529,165.125,-380.529,165.125C-381.726,165.125,-382.698,164.153,-382.698,162.956C-382.698,162.956,-382.698,154.198,-382.698,154.198C-382.698,154.198,-382.316,154.069,-382.316,154.069C-382.182,154.032,-381.156,153.719,-380.115,152.978C-378.637,151.928,-377.854,150.523,-377.854,148.916C-377.854,148.916,-377.854,145.297,-377.854,145.297C-377.375,145.205,-376.412,145.113,-375.717,145.624C-375.128,146.057,-374.828,146.862,-374.828,148.018C-374.828,148.018,-374.828,152.103,-374.828,152.103C-374.828,152.333,-374.639,152.522,-374.409,152.522C-374.409,152.522,-368.971,152.522,-368.971,152.522C-368.971,152.522,-368.971,152.517,-368.971,152.517Z" /></g></g></g><g id="i30"><g id="i31"><g id="i32"><path fill="#212121" d="M-247.793,161.442C-249.838,161.442,-251.497,159.784,-251.497,157.739C-251.497,157.739,-251.497,148.054,-251.497,148.054C-251.497,146.009,-249.838,144.351,-247.793,144.351C-247.793,144.351,-232.411,144.351,-232.411,144.351C-230.366,144.351,-228.708,146.009,-228.708,148.054C-228.708,148.054,-228.708,157.739,-228.708,157.739C-228.708,159.784,-230.366,161.442,-232.411,161.442C-232.411,161.442,-238.948,161.442,-238.948,161.442C-238.948,161.442,-244.661,165.716,-244.661,165.716C-245.291,166.187,-246.184,166.059,-246.655,165.429C-246.839,165.183,-246.939,164.883,-246.939,164.576C-246.939,164.576,-246.94,161.442,-246.94,161.442C-246.94,161.442,-247.793,161.442,-247.793,161.442ZM-239.517,159.733C-239.517,159.733,-232.411,159.733,-232.411,159.733C-231.31,159.733,-230.417,158.84,-230.417,157.739C-230.417,157.739,-230.417,148.054,-230.417,148.054C-230.417,146.953,-231.31,146.06,-232.411,146.06C-232.411,146.06,-247.793,146.06,-247.793,146.06C-248.894,146.06,-249.788,146.953,-249.788,148.054C-249.788,148.054,-249.788,157.739,-249.788,157.739C-249.788,158.84,-248.894,159.733,-247.793,159.733C-247.793,159.733,-245.231,159.733,-245.231,159.733C-245.231,159.733,-245.231,160.588,-245.231,160.588C-245.231,160.588,-245.23,164.007,-245.23,164.007C-245.23,164.007,-239.517,159.733,-239.517,159.733Z" /></g></g></g><g id="i30"><g id="i33"><g id="i32"><path fill="#212121" d="M-108.786,147.176C-108.786,147.176,-105.322,147.176,-105.322,147.176C-104.908,147.176,-104.572,147.512,-104.572,147.926C-104.572,148.306,-104.855,148.619,-105.221,148.669C-105.221,148.669,-105.322,148.676,-105.322,148.676C-105.322,148.676,-108.786,148.676,-108.786,148.676C-109.977,148.676,-110.952,149.601,-111.031,150.772C-111.031,150.772,-111.036,150.926,-111.036,150.926C-111.036,150.926,-111.036,160.426,-111.036,160.426C-111.036,161.617,-110.112,162.592,-108.941,162.671C-108.941,162.671,-108.786,162.676,-108.786,162.676C-108.786,162.676,-99.286,162.676,-99.286,162.676C-98.095,162.676,-97.12,161.751,-97.041,160.58C-97.041,160.58,-97.036,160.426,-97.036,160.426C-97.036,160.426,-97.036,159.928,-97.036,159.928C-97.036,159.514,-96.7,159.178,-96.286,159.178C-95.906,159.178,-95.593,159.46,-95.543,159.826C-95.543,159.826,-95.536,159.928,-95.536,159.928C-95.536,159.928,-95.536,160.426,-95.536,160.426C-95.536,162.43,-97.109,164.067,-99.087,164.171C-99.087,164.171,-99.286,164.176,-99.286,164.176C-99.286,164.176,-108.786,164.176,-108.786,164.176C-110.79,164.176,-112.427,162.603,-112.531,160.625C-112.531,160.625,-112.536,160.426,-112.536,160.426C-112.536,160.426,-112.536,150.926,-112.536,150.926C-112.536,148.922,-110.964,147.285,-108.986,147.181C-108.986,147.181,-108.786,147.176,-108.786,147.176C-108.786,147.176,-105.322,147.176,-105.322,147.176C-105.322,147.176,-108.786,147.176,-108.786,147.176ZM-101.033,149.72C-101.033,149.72,-101.033,146.926,-101.033,146.926C-101.033,146.302,-100.326,145.966,-99.846,146.316C-99.846,146.316,-99.763,146.385,-99.763,146.385C-99.763,146.385,-93.769,152.135,-93.769,152.135C-93.489,152.403,-93.463,152.834,-93.692,153.132C-93.692,153.132,-93.769,153.217,-93.769,153.217C-93.769,153.217,-99.763,158.969,-99.763,158.969C-100.213,159.401,-100.945,159.124,-101.025,158.535C-101.025,158.535,-101.033,158.428,-101.033,158.428C-101.033,158.428,-101.033,155.626,-101.033,155.626C-101.033,155.626,-101.353,155.62,-101.353,155.62C-104.011,155.612,-106.282,156.703,-108.218,158.921C-108.714,159.489,-109.644,159.053,-109.524,158.309C-108.697,153.169,-105.924,150.264,-101.334,149.75C-101.334,149.75,-101.033,149.72,-101.033,149.72C-101.033,149.72,-101.033,146.926,-101.033,146.926C-101.033,146.926,-101.033,149.72,-101.033,149.72Z" /></g></g></g><g id="i34"><path fill="#475993" d="M-354.121,-265C-354.121,-265,-381.879,-265,-381.879,-265C-384.707,-265,-387,-262.708,-387,-259.88C-387,-259.88,-387,-232.121,-387,-232.121C-387,-229.293,-384.707,-227,-381.879,-227C-381.879,-227,-368.189,-227,-368.189,-227C-368.189,-227,-368.166,-240.579,-368.166,-240.579C-368.166,-240.579,-371.693,-240.579,-371.693,-240.579C-372.151,-240.579,-372.524,-240.95,-372.526,-241.408C-372.526,-241.408,-372.543,-245.786,-372.543,-245.786C-372.545,-246.247,-372.171,-246.621,-371.71,-246.621C-371.71,-246.621,-368.189,-246.621,-368.189,-246.621C-368.189,-246.621,-368.189,-250.851,-368.189,-250.851C-368.189,-255.759,-365.191,-258.431,-360.813,-258.431C-360.813,-258.431,-357.22,-258.431,-357.22,-258.431C-356.76,-258.431,-356.388,-258.059,-356.388,-257.599C-356.388,-257.599,-356.388,-253.908,-356.388,-253.908C-356.388,-253.448,-356.759,-253.076,-357.219,-253.076C-357.219,-253.076,-359.424,-253.075,-359.424,-253.075C-361.805,-253.075,-362.267,-251.944,-362.267,-250.283C-362.267,-250.283,-362.267,-246.621,-362.267,-246.621C-362.267,-246.621,-357.034,-246.621,-357.034,-246.621C-356.535,-246.621,-356.149,-246.186,-356.208,-245.691C-356.208,-245.691,-356.727,-241.314,-356.727,-241.314C-356.777,-240.895,-357.131,-240.579,-357.553,-240.579C-357.553,-240.579,-362.243,-240.579,-362.243,-240.579C-362.243,-240.579,-362.267,-227,-362.267,-227C-362.267,-227,-354.121,-227,-354.121,-227C-351.293,-227,-349,-229.292,-349,-232.12C-349,-232.12,-349,-259.88,-349,-259.88C-349,-262.708,-351.293,-265,-354.121,-265Z" /></g><g id="i22"><g id="i18"><g id="i18"><g id="i18"><path fill="#263238" d="M-189.804,50.304C-189.804,50.341,-190.145,50.377,-190.793,50.413C-191.569,50.441,-192.503,50.474,-193.628,50.515C-196.265,50.559,-199.788,50.617,-204.059,50.688C-212.866,50.786,-225.033,50.848,-238.47,50.848C-251.912,50.848,-264.08,50.786,-272.887,50.688C-277.158,50.617,-280.679,50.559,-283.316,50.515C-284.441,50.474,-285.376,50.441,-286.152,50.413C-286.8,50.377,-287.14,50.341,-287.14,50.304C-287.14,50.266,-286.8,50.229,-286.152,50.194C-285.376,50.166,-284.441,50.133,-283.316,50.092C-280.679,50.048,-277.158,49.99,-272.887,49.919C-264.08,49.821,-251.912,49.759,-238.47,49.759C-225.033,49.759,-212.866,49.821,-204.059,49.919C-199.787,49.99,-196.265,50.048,-193.628,50.092C-192.503,50.133,-191.569,50.166,-190.793,50.194C-190.145,50.229,-189.804,50.266,-189.804,50.304Z" /></g></g></g></g><g id="i19"><g id="i22"><g id="i18"><path fill="#455a64" d="M-104.684,258.627C-104.684,258.858,-167.945,259.044,-245.962,259.044C-324.007,259.044,-387.254,258.858,-387.254,258.627C-387.254,258.396,-324.007,258.209,-245.962,258.209C-167.945,258.209,-104.684,258.396,-104.684,258.627Z" /></g></g><g id="i19"><g id="i18"><path fill="#455a64" d="M-104.684,240.583C-104.684,240.814,-167.945,241.001,-245.962,241.001C-324.007,241.001,-387.254,240.814,-387.254,240.583C-387.254,240.352,-324.007,240.166,-245.962,240.166C-167.945,240.166,-104.684,240.352,-104.684,240.583Z" /></g></g><g id="i18"><g id="i18"><path fill="#455a64" d="M-233.449,276.911C-233.449,277.142,-267.881,277.328,-310.347,277.328C-352.827,277.328,-387.254,277.142,-387.254,276.911C-387.254,276.68,-352.827,276.493,-310.347,276.493C-267.881,276.493,-233.449,276.68,-233.449,276.911Z" /></g></g></g><g id="i18"><g id="i18"><g id="i19"><path fill="#3c92ca" d="M-384.297,322.378C-384.297,322.378,-388.736,322.378,-388.736,322.378C-388.833,322.378,-388.915,322.315,-388.915,322.241C-388.915,322.241,-388.915,313.47,-388.915,313.47C-388.915,313.396,-388.833,313.332,-388.736,313.332C-388.736,313.332,-384.297,313.332,-384.297,313.332C-384.2,313.332,-384.117,313.396,-384.117,313.47C-384.117,313.47,-384.117,322.241,-384.117,322.241C-384.117,322.315,-384.196,322.378,-384.297,322.378Z" /></g><g id="i18"><path fill="#000000" d="M-376.229,306.857C-377.528,306.126,-379.323,306.545,-379.397,306.563C-379.572,306.605,-379.687,306.729,-379.687,306.867C-379.687,306.867,-379.687,309.897,-379.687,309.897C-379.687,310.924,-380.323,311.792,-381.58,312.481C-382.552,313.014,-383.546,313.233,-383.555,313.237C-383.564,313.237,-383.569,313.24,-383.578,313.244C-383.578,313.244,-383.813,313.304,-383.813,313.304C-383.951,313.131,-384.196,313.014,-384.481,313.014C-384.481,313.014,-388.556,313.014,-388.556,313.014C-388.984,313.014,-389.334,313.283,-389.334,313.611C-389.334,313.611,-389.334,322.103,-389.334,322.103C-389.334,322.431,-388.984,322.7,-388.556,322.7C-388.556,322.7,-384.476,322.7,-384.476,322.7C-384.108,322.7,-383.799,322.502,-383.721,322.241C-383.173,322.689,-382.395,322.972,-381.529,322.972C-381.529,322.972,-371.868,322.972,-371.868,322.972C-369.814,322.972,-368.502,322.149,-368.272,320.712C-368.272,320.712,-367.038,314.702,-367.038,314.702C-366.858,313.83,-367.323,312.947,-368.226,312.453C-368.737,312.171,-369.34,312.022,-369.971,312.022C-369.971,312.022,-374.995,312.022,-374.995,312.022C-374.995,312.022,-374.995,309.212,-374.995,309.212C-374.995,308.11,-375.409,307.32,-376.229,306.857ZM-384.536,322.057C-384.536,322.057,-388.501,322.057,-388.501,322.057C-388.501,322.057,-388.501,313.654,-388.501,313.654C-388.501,313.654,-384.536,313.654,-384.536,313.654C-384.536,313.654,-384.536,322.057,-384.536,322.057ZM-369.971,312.661C-369.515,312.661,-369.082,312.767,-368.714,312.972C-368.069,313.329,-367.733,313.967,-367.867,314.603C-367.867,314.603,-369.096,320.617,-369.096,320.617C-369.096,320.621,-369.096,320.623,-369.096,320.627C-369.322,322.032,-370.726,322.329,-371.868,322.329C-371.868,322.329,-381.529,322.329,-381.529,322.329C-382.726,322.329,-383.698,321.584,-383.698,320.666C-383.698,320.666,-383.698,313.95,-383.698,313.95C-383.698,313.95,-383.316,313.851,-383.316,313.851C-383.182,313.823,-382.156,313.582,-381.115,313.014C-379.637,312.209,-378.854,311.132,-378.854,309.9C-378.854,309.9,-378.854,307.125,-378.854,307.125C-378.375,307.054,-377.412,306.984,-376.717,307.376C-376.128,307.708,-375.828,308.326,-375.828,309.212C-375.828,309.212,-375.828,312.344,-375.828,312.344C-375.828,312.521,-375.639,312.665,-375.409,312.665C-375.409,312.665,-369.971,312.665,-369.971,312.665C-369.971,312.665,-369.971,312.661,-369.971,312.661Z" /></g></g></g><g id="i30"><g id="i31"><g id="i32"><path fill="#212121" d="M-248.793,319.505C-250.838,319.505,-252.497,318.234,-252.497,316.666C-252.497,316.666,-252.497,309.239,-252.497,309.239C-252.497,307.671,-250.838,306.399,-248.793,306.399C-248.793,306.399,-233.411,306.399,-233.411,306.399C-231.366,306.399,-229.708,307.671,-229.708,309.239C-229.708,309.239,-229.708,316.666,-229.708,316.666C-229.708,318.234,-231.366,319.505,-233.411,319.505C-233.411,319.505,-239.948,319.505,-239.948,319.505C-239.948,319.505,-245.661,322.782,-245.661,322.782C-246.291,323.143,-247.184,323.045,-247.655,322.562C-247.839,322.373,-247.939,322.144,-247.939,321.908C-247.939,321.908,-247.94,319.505,-247.94,319.505C-247.94,319.505,-248.793,319.505,-248.793,319.505ZM-240.517,318.195C-240.517,318.195,-233.411,318.195,-233.411,318.195C-232.31,318.195,-231.417,317.51,-231.417,316.666C-231.417,316.666,-231.417,309.239,-231.417,309.239C-231.417,308.395,-232.31,307.71,-233.411,307.71C-233.411,307.71,-248.793,307.71,-248.793,307.71C-249.894,307.71,-250.788,308.395,-250.788,309.239C-250.788,309.239,-250.788,316.666,-250.788,316.666C-250.788,317.51,-249.894,318.195,-248.793,318.195C-248.793,318.195,-246.231,318.195,-246.231,318.195C-246.231,318.195,-246.231,318.85,-246.231,318.85C-246.231,318.85,-246.23,321.472,-246.23,321.472C-246.23,321.472,-240.517,318.195,-240.517,318.195Z" /></g></g></g><g id="i30"><g id="i33"><g id="i32"><path fill="#212121" d="M-109.786,308.566C-109.786,308.566,-106.322,308.566,-106.322,308.566C-105.908,308.566,-105.572,308.823,-105.572,309.141C-105.572,309.432,-105.855,309.673,-106.221,309.711C-106.221,309.711,-106.322,309.716,-106.322,309.716C-106.322,309.716,-109.786,309.716,-109.786,309.716C-110.977,309.716,-111.952,310.425,-112.031,311.323C-112.031,311.323,-112.036,311.441,-112.036,311.441C-112.036,311.441,-112.036,318.726,-112.036,318.726C-112.036,319.639,-111.112,320.386,-109.941,320.447C-109.941,320.447,-109.786,320.451,-109.786,320.451C-109.786,320.451,-100.286,320.451,-100.286,320.451C-99.095,320.451,-98.12,319.742,-98.041,318.844C-98.041,318.844,-98.036,318.726,-98.036,318.726C-98.036,318.726,-98.036,318.344,-98.036,318.344C-98.036,318.026,-97.7,317.769,-97.286,317.769C-96.906,317.769,-96.593,317.985,-96.543,318.266C-96.543,318.266,-96.536,318.344,-96.536,318.344C-96.536,318.344,-96.536,318.726,-96.536,318.726C-96.536,320.263,-98.109,321.518,-100.087,321.597C-100.087,321.597,-100.286,321.601,-100.286,321.601C-100.286,321.601,-109.786,321.601,-109.786,321.601C-111.79,321.601,-113.427,320.396,-113.531,318.879C-113.531,318.879,-113.536,318.726,-113.536,318.726C-113.536,318.726,-113.536,311.441,-113.536,311.441C-113.536,309.904,-111.964,308.649,-109.986,308.57C-109.986,308.57,-109.786,308.566,-109.786,308.566C-109.786,308.566,-106.322,308.566,-106.322,308.566C-106.322,308.566,-109.786,308.566,-109.786,308.566ZM-102.033,310.517C-102.033,310.517,-102.033,308.374,-102.033,308.374C-102.033,307.896,-101.326,307.638,-100.846,307.906C-100.846,307.906,-100.763,307.959,-100.763,307.959C-100.763,307.959,-94.769,312.368,-94.769,312.368C-94.489,312.574,-94.463,312.905,-94.692,313.133C-94.692,313.133,-94.769,313.198,-94.769,313.198C-94.769,313.198,-100.763,317.609,-100.763,317.609C-101.213,317.94,-101.945,317.727,-102.025,317.276C-102.025,317.276,-102.033,317.194,-102.033,317.194C-102.033,317.194,-102.033,315.045,-102.033,315.045C-102.033,315.045,-102.353,315.04,-102.353,315.04C-105.011,315.034,-107.282,315.871,-109.218,317.572C-109.714,318.007,-110.644,317.673,-110.524,317.102C-109.697,313.16,-106.924,310.934,-102.334,310.54C-102.334,310.54,-102.033,310.517,-102.033,310.517C-102.033,310.517,-102.033,308.374,-102.033,308.374C-102.033,308.374,-102.033,310.517,-102.033,310.517Z" /></g></g></g></g></g><g opacity="0" id="i35"><animate repeatCount="indefinite" attributeName="opacity" dur="3s" begin="0s" fill="freeze" values="0; 0; 1; 1" keyTimes="0; 0.3; 0.505556; 1" keySplines="0 0 1 1; 0.333 0 0.667 1; 0 0 1 1" calcMode="spline" /><g transform="translate(540,540) scale(1,1) translate(0,0)"><g id="i36"><animate repeatCount="indefinite" attributeName="opacity" dur="3s" begin="0s" fill="freeze" values="1; 1; 0; 1; 1; 0; 1; 1" keyTimes="0; 0.083333; 0.172222; 0.255555; 0.555556; 0.644445; 0.727778; 1" keySplines="0 0 1 1; 0 0 1 1; 0 0 1 1; 0 0 1 1; 0 0 1 1; 0 0 1 1; 0 0 1 1" calcMode="spline" /><g id="i18"><path fill="#263238" d="M-251.428,362.259C-251.443,365.622,-254.142,368.335,-257.457,368.321C-260.772,368.304,-263.448,365.565,-263.435,362.202C-263.42,358.84,-260.721,356.123,-257.406,356.14C-254.091,356.154,-251.415,358.894,-251.428,362.259Z" /></g></g><g id="i37"><animate repeatCount="indefinite" attributeName="opacity" dur="3s" begin="0s" fill="freeze" values="1; 1; 0; 1; 1; 0; 1; 1" keyTimes="0; 0.255556; 0.344444; 0.427778; 0.727778; 0.816667; 0.9; 1" keySplines="0 0 1 1; 0 0 1 1; 0 0 1 1; 0 0 1 1; 0 0 1 1; 0 0 1 1; 0 0 1 1" calcMode="spline" /><g id="i18"><path fill="#0000ff" d="M-232.826,362.344C-232.841,365.706,-235.54,368.42,-238.855,368.406C-242.17,368.392,-244.845,365.652,-244.832,362.287C-244.819,358.925,-242.118,356.211,-238.803,356.225C-235.488,356.239,-232.812,358.978,-232.826,362.344Z" /></g></g><g id="i38"><animate repeatCount="indefinite" attributeName="opacity" dur="3s" begin="0s" fill="freeze" values="1; 1; 0; 1; 1; 0; 1" keyTimes="0; 0.427778; 0.516667; 0.6; 0.9; 0.988889; 1" keySplines="0 0 1 1; 0 0 1 1; 0 0 1 1; 0 0 1 1; 0 0 1 1; 0 0 1 1" calcMode="spline" /><g id="i18"><path fill="#263238" d="M-214.225,362.429C-214.238,365.792,-216.938,368.508,-220.253,368.491C-223.568,368.477,-226.245,365.738,-226.231,362.373C-226.216,359.01,-223.517,356.296,-220.202,356.31C-216.887,356.324,-214.21,359.064,-214.225,362.429Z" /></g></g></g></g><g visibility="hidden" id="i39"><animate repeatCount="indefinite" begin="0s" calcMode="discrete" dur="3s" values="hidden; visible; visible" keyTimes="0; 0.222; 1" attributeName="visibility" /><g transform="translate(410.424,962.534)"><g transform="scale(0,0)"><animateTransform repeatCount="indefinite" type="scale" attributeName="transform" dur="3s" begin="0s" calcMode="spline" values="0 0; 0 0; 1.1 1.1; 1 1; 1 1" keyTimes="0; 0.3; 0.466667; 0.55; 1" keySplines="0 0 1 1; 0.528 0.472 0.628 1; 0.252 0 0 1; 0 0 1 1" fill="freeze" /><g transform="translate(129.576,-422.534)"><g id="i22"><g id="i18"><path fill="#ffbe9d" d="M-222.766,247.86C-222.766,247.86,-230.556,221.684,-230.556,221.684C-231.915,216.008,-233.721,209.312,-236.15,201.671C-238.333,194.803,-243.934,187.588,-249.044,182.391C-256.996,174.304,-260.778,174.249,-266.123,169.957C-266.61,169.645,-267.153,169.198,-267.612,168.95C-268.718,168.351,-269.529,167.556,-270.211,166.701C-274.817,161.718,-270.395,154.007,-261.039,154.741C-253.996,155.293,-242.511,157.309,-223.834,176.575C-223.602,176.867,-223.357,177.113,-223.128,177.412C-213.326,190.153,-204.121,153.782,-202.46,140.243C-201.383,131.459,-191.881,126.061,-183.284,129.239C-183.284,129.239,-137.79,150.518,-137.79,150.518C-134.032,149.195,-129.572,149.418,-124.508,150.968C-117.81,153.445,-114.09,160.332,-115.841,167.016C-115.841,167.016,-134.294,240.675,-134.294,240.675C-134.294,240.675,-80.099,421,-80.099,421C-80.099,421,-196.909,421,-196.909,421C-196.909,421,-222.766,247.86,-222.766,247.86Z" /></g></g><g id="i19"><g><g transform="translate(-409,72)"><g transform="scale(1,1)"><animateTransform repeatCount="indefinite" type="scale" attributeName="transform" dur="3s" begin="0s" calcMode="spline" values="1 1; 1 1; 1.08 1.08; 1 1; 1.04 1.04; 1 1; 1 1" keyTimes="0; 0.577778; 0.661111; 0.744444; 0.827778; 0.911111; 1" keySplines="0 0 1 1; 0.333 0 0.667 1; 0.333 0 0.667 1; 0.333 0 0.667 1; 0.333 0 0.667 1; 0 0 1 1" fill="freeze" /><g id="i19" transform="translate(392,-64)"><g id="i34"><g id="i18"><path fill="#ed9920" d="M-272.667,-56.295C-272.667,-56.295,-219.811,-67.985,-145.432,-139.511C-71.054,-211.036,-36.104,-306.018,-27,-305.555C-17.895,-305.093,21.857,-323.548,97.465,-159.081C173.072,5.386,143.29,43.579,128.245,43.272C113.199,42.962,11.042,14.493,-52.766,21.746C-116.574,29.001,-198.592,62.255,-198.592,62.255C-198.592,62.255,-272.667,-56.295,-272.667,-56.295Z" /></g></g><g id="i22"><g id="i18"><path fill="#770003" d="M91.355,-156.087C131.593,-66.994,148.343,12.398,128.767,21.239C109.192,30.081,60.703,-34.978,20.464,-124.07C-19.772,-213.162,-36.523,-292.553,-16.948,-301.394C2.628,-310.235,51.116,-245.18,91.355,-156.087Z" /></g></g><g id="i19"><g id="i18"><path fill="#e69810" d="M9.321,-175.899C9.321,-175.899,55.26,-204.385,80.395,-142.319C105.528,-80.252,57.194,-70.046,57.194,-70.046C37.414,-100.719,21.347,-135.87,9.321,-175.899Z" /></g></g><g id="i18"><g id="i18"><path fill="#ac6202" d="M-39.538,-249.869C-39.807,-249.824,-39.153,-245.609,-37.738,-238.012C-36.285,-230.428,-34.23,-219.418,-31.284,-205.9C-29.342,-199.243,-27.22,-191.974,-24.944,-184.18C-23.793,-180.275,-22.599,-176.239,-21.374,-172.083C-20.758,-170.003,-20.133,-167.894,-19.499,-165.758C-18.813,-163.638,-17.918,-161.559,-17.119,-159.416C-13.811,-150.876,-10.339,-141.918,-6.741,-132.636C-5.838,-130.314,-4.927,-127.975,-4.006,-125.614C-3.113,-123.242,-1.849,-121.011,-0.777,-118.676C1.469,-114.047,3.745,-109.349,6.05,-104.597C8.363,-99.846,10.648,-95.15,12.9,-90.522C14.071,-88.234,15.049,-85.861,16.357,-83.69C17.645,-81.509,18.922,-79.342,20.188,-77.196C25.262,-68.628,30.159,-60.361,34.826,-52.478C36.019,-50.525,37.1,-48.537,38.343,-46.686C39.633,-44.863,40.906,-43.063,42.163,-41.291C44.676,-37.752,47.116,-34.315,49.477,-30.989C54.202,-24.377,58.611,-18.207,62.647,-12.558C71.431,-1.914,78.797,6.482,83.858,12.31C88.95,18.112,91.864,21.238,92.074,21.064C92.284,20.892,89.768,17.435,85.042,11.334C80.14,5.119,73.258,-3.609,64.805,-14.326C60.919,-20.019,56.677,-26.237,52.128,-32.902C49.841,-36.234,47.477,-39.677,45.042,-43.221C43.821,-44.991,42.586,-46.789,41.331,-48.609C40.123,-50.46,39.069,-52.454,37.907,-54.406C33.334,-62.273,28.536,-70.524,23.563,-79.075C22.315,-81.212,21.059,-83.367,19.79,-85.539C18.499,-87.698,17.537,-90.058,16.378,-92.335C14.149,-96.933,11.886,-101.598,9.598,-106.319C7.303,-111.035,5.035,-115.697,2.799,-120.29C1.727,-122.606,0.464,-124.819,-0.431,-127.17C-1.354,-129.508,-2.27,-131.829,-3.179,-134.13C-6.825,-143.321,-10.346,-152.19,-13.7,-160.645C-14.517,-162.766,-15.432,-164.822,-16.14,-166.918C-16.796,-169.033,-17.443,-171.119,-18.084,-173.176C-19.366,-177.286,-20.613,-181.279,-21.819,-185.14C-24.247,-192.843,-26.512,-200.029,-28.589,-206.608C-31.782,-219.85,-34.38,-230.632,-36.232,-238.312C-38.106,-245.794,-39.271,-249.916,-39.538,-249.869Z" /></g></g></g></g></g></g><g><g transform="translate(-402,75)"><g transform="scale(1,1)"><animateTransform repeatCount="indefinite" type="scale" attributeName="transform" dur="3s" begin="0s" calcMode="spline" values="1 1; 1 1; 1.02 1.02; 1 1; 1.01 1.01; 1 1; 1 1" keyTimes="0; 0.577778; 0.661111; 0.744444; 0.827778; 0.911111; 1" keySplines="0 0 1 1; 0.333 0 0.667 1; 0.333 0 0.667 1; 0.333 0 0.667 1; 0.333 0 0.667 1; 0 0 1 1" fill="freeze" /><g id="i18" transform="translate(405.394,-67.913)"><g id="i34"><g id="i18"><g id="i18"><path fill="#ff8f13" d="M-319.501,88.245C-319.501,88.245,-283.393,158.999,-283.393,158.999C-283.393,158.999,-265.339,153.984,-265.339,153.984C-265.339,153.984,-174.584,227.807,-174.584,227.807C-166.861,234.089,-155.541,233.083,-149.047,225.537C-149.047,225.537,-114.494,185.385,-114.494,185.385C-114.494,185.385,-184.167,155.371,-197.053,130.527C-209.938,105.682,-195.048,100.047,-195.048,100.047C-195.048,100.047,-227.84,62.785,-227.84,62.785C-227.84,62.785,-319.501,88.245,-319.501,88.245Z" /></g></g></g><g id="i22"><g id="i18"><path fill="#ff8f13" d="M-384.953,33.351C-384.953,33.351,-366.92,67.634,-366.92,67.634C-366.92,67.634,-358.841,82.993,-358.841,82.993C-347.764,104.059,-322.134,112.766,-300.516,102.807C-300.516,102.807,-187.227,63.334,-187.227,63.334C-187.227,63.334,-253.205,-87.288,-253.205,-87.288C-253.205,-87.288,-366.391,-26.969,-366.391,-26.969C-388.116,-15.391,-396.411,11.561,-384.953,33.351Z" /></g></g><g id="i19"><g id="i19"><g id="i18"><path fill="#ed9920" d="M-385.523,34.285C-385.523,34.285,-367.342,68.49,-367.342,68.49C-367.342,68.49,-359.196,83.813,-359.196,83.813C-348.027,104.831,-322.36,113.427,-300.785,103.374C-300.785,103.374,-187.669,63.408,-187.669,63.408C-187.669,63.408,-254.301,-86.926,-254.301,-86.926C-254.301,-86.926,-367.224,-26.115,-367.224,-26.115C-388.899,-14.442,-397.076,12.545,-385.523,34.285Z" /></g></g><g id="i18"><g id="i18"><path fill="#ed9920" d="M-394.676,82.889C-394.676,82.889,-363.969,73.246,-363.969,73.246C-363.969,73.246,-382.971,37.116,-382.971,37.116C-382.971,37.116,-406,51.431,-406,51.431C-406,51.431,-394.676,82.889,-394.676,82.889Z" /></g></g></g><g id="i18"><g id="i34"><path fill="#ac6202" d="M-282.032,-71.945C-282.032,-71.945,-214.546,72.334,-214.546,72.334C-214.546,72.334,-221.391,75.221,-221.391,75.221C-221.391,75.221,-288.801,-68.202,-288.801,-68.202C-288.801,-68.202,-282.032,-71.945,-282.032,-71.945Z" /></g><g id="i22"><path fill="#ac6202" d="M-292.01,-66.902C-292.01,-66.902,-224.524,77.377,-224.524,77.377C-224.524,77.377,-231.369,80.264,-231.369,80.264C-231.369,80.264,-298.78,-63.158,-298.78,-63.158C-298.78,-63.158,-292.01,-66.902,-292.01,-66.902Z" /></g><g id="i19"><path fill="#ac6202" d="M-335.194,-42.507C-335.194,-42.507,-272.315,92.764,-272.315,92.764C-272.315,92.764,-278.692,95.47,-278.692,95.47C-278.692,95.47,-341.501,-38.997,-341.501,-38.997C-341.501,-38.997,-335.194,-42.507,-335.194,-42.507Z" /></g><g id="i18"><path fill="#ac6202" d="M-344.49,-37.808C-344.49,-37.808,-281.615,96.614,-281.615,96.614C-281.615,96.614,-287.992,99.304,-287.992,99.304C-287.992,99.304,-350.797,-34.32,-350.797,-34.32C-350.797,-34.32,-344.49,-37.808,-344.49,-37.808Z" /></g></g></g></g></g></g></g><g><g id="i18" transform="scale(1,1)"><animateTransform repeatCount="indefinite" type="scale" attributeName="transform" dur="3s" begin="0s" calcMode="spline" values="1 1; 1 1; 1.01 1.01; 1 1; 1.005 1.005; 1 1; 1 1" keyTimes="0; 0.577778; 0.661111; 0.744444; 0.827778; 0.911111; 1" keySplines="0 0 1 1; 0 0 1 1; 0 0 1 1; 0 0 1 1; 0 0 1 1; 0 0 1 1" fill="freeze" /><g id="i29" transform="matrix(1,0,0,1,0,0)" opacity="0.5"><g id="i18"><path fill="#ac9999" d="M-118.502,174.455C-122.691,182.063,-126.969,189.789,-133.171,195.869C-139.373,201.949,-147.89,206.255,-156.531,205.385C-165.172,204.515,-173.36,197.339,-173.453,188.654C-177.601,191.771,-183.957,190.081,-187.393,186.194C-190.829,182.307,-191.944,176.905,-192.356,171.733C-197.989,175.056,-205.822,172.421,-209.582,167.07C-213.341,161.719,-213.574,154.509,-211.753,148.228C-209.931,141.947,-206.296,136.374,-202.709,130.906C-207.046,131.256,-211.64,131.56,-215.521,129.593C-219.403,127.626,-222.022,122.493,-219.758,118.777C-218.429,116.596,-215.879,115.513,-213.442,114.75C-206.644,112.622,-201.876,110.918,-194.8,111.74C-193.156,111.756,-197.631,130.404,-153.219,155.908C-127,170.965,-118.502,174.455,-118.502,174.455Z" /></g></g><g id="i22"><path fill="#ffbe9d" d="M-121.397,162.629C-128.552,169.501,-133.444,177.088,-140.948,184.009C-144.358,187.154,-149.655,193.111,-154.226,193.904C-158.796,194.696,-161.725,194.09,-163.534,189.818C-164.999,186.358,-162.368,181.632,-160.551,178.78C-155.771,171.281,-151.198,165.418,-147.618,159.588C-145.941,156.858,-148.113,156.293,-148.904,157.558C-152.349,161.128,-157.485,164.22,-160.569,168.106C-164.793,173.428,-165.559,180.476,-176.609,178.247C-178.07,177.952,-179.527,177.448,-180.711,176.542C-184.871,173.359,-185.046,167.823,-183.295,163.388C-181.923,159.914,-179.515,156.966,-177.143,154.08C-181.846,159.391,-186.982,164.985,-194.46,165.587C-198.809,165.937,-203.175,163.913,-204.933,159.92C-207.146,154.896,-203.974,150.038,-200.789,146.109C-195.145,139.147,-188.848,132.715,-182.009,126.923C-179.463,124.767,-176.216,123.56,-172.88,123.538C-169.012,123.513,-164.17,124.241,-161.78,127.605C-157.439,133.714,-158.776,139.115,-158.776,139.115C-158.776,139.115,-149.075,134.197,-141.28,139.341C-133.485,144.486,-131.555,153.328,-131.555,153.328C-131.555,153.328,-121.397,162.629,-121.397,162.629Z" /></g><g id="i19"><path fill="#ffbe9d" d="M-173.023,121.407C-170.02,118.384,-169.321,112.852,-171.651,108.285C-173.301,105.051,-175.382,101.909,-177.492,101.197C-186.721,98.083,-227.042,105.059,-226.674,114.008C-226.296,123.197,-223.362,127.241,-201.48,124.081C-197.631,123.525,-191.59,122.767,-191.59,122.767C-191.59,122.767,-186.308,130.695,-186.308,130.695C-186.308,130.695,-173.023,121.407,-173.023,121.407Z" /></g></g></g></g></g></g></g><g id="i40"><g transform="translate(510,428)"><g transform="scale(0,0)"><animateTransform repeatCount="indefinite" type="scale" attributeName="transform" dur="3s" begin="0s" calcMode="spline" values="0 0; 0 0; 1 1; 1 1" keyTimes="0; 0.588889; 0.772222; 1" keySplines="0 0 1 1; 0.333 0 0.667 1; 0 0 1 1" fill="freeze" /><g transform="translate(30,112)"><g id="i22" transform="matrix(1,0,0,1,0,0)" opacity="0.8"><path fill="url(#i0)" d="M449.637,-424.494C449.637,-383.904,416.732,-351,376.143,-351C335.553,-351,302.649,-383.904,302.649,-424.494C302.649,-465.084,335.553,-497.988,376.143,-497.988C416.732,-497.988,449.637,-465.084,449.637,-424.494Z" /></g><g id="i19"><path fill="url(#i1)" d="M406.139,-454.401C406.139,-426.14,383.229,-403.23,354.968,-403.23C326.707,-403.23,303.798,-426.14,303.798,-454.401C303.798,-482.662,326.707,-505.571,354.968,-505.571C383.229,-505.571,406.139,-482.662,406.139,-454.401Z" /></g><g id="i18"><path fill="#ffffff" d="M383.241,-471.934C381.469,-471.133,379.509,-470.646,377.597,-470.325C378.505,-470.478,379.838,-472.12,380.372,-472.785C381.188,-473.799,381.864,-474.954,382.245,-476.201C382.294,-476.298,382.33,-476.421,382.233,-476.495C382.111,-476.544,382.031,-476.519,381.934,-476.47C379.799,-475.326,377.591,-474.496,375.242,-473.909C375.047,-473.86,374.902,-473.909,374.78,-474.031C374.585,-474.251,374.402,-474.458,374.195,-474.629C373.207,-475.469,372.148,-476.128,370.953,-476.615C369.384,-477.254,367.671,-477.526,365.982,-477.416C364.338,-477.309,362.724,-476.846,361.265,-476.084C359.803,-475.32,358.499,-474.258,357.46,-472.976C356.386,-471.65,355.594,-470.085,355.188,-468.425C354.796,-466.824,354.829,-465.239,355.068,-463.62C355.104,-463.352,355.08,-463.315,354.837,-463.351C345.646,-464.719,338.028,-468.008,331.843,-475.055C331.575,-475.361,331.429,-475.36,331.209,-475.031C328.502,-470.974,329.815,-464.458,333.196,-461.255C333.647,-460.828,334.11,-460.401,334.609,-460.011C334.427,-459.974,332.177,-460.218,330.172,-461.255C329.904,-461.425,329.769,-461.327,329.745,-461.023C329.72,-460.584,329.758,-460.182,329.818,-459.706C330.337,-455.594,333.185,-451.79,337.085,-450.306C337.548,-450.111,338.06,-449.941,338.559,-449.856C337.67,-449.661,336.755,-449.522,334.207,-449.721C333.89,-449.782,333.769,-449.623,333.89,-449.319C335.805,-444.1,339.939,-442.547,343.034,-441.662C343.448,-441.59,343.863,-441.589,344.279,-441.492C344.254,-441.455,344.229,-441.455,344.205,-441.419C343.178,-439.854,339.619,-438.688,337.961,-438.109C334.946,-437.055,331.663,-436.581,328.477,-436.895C327.967,-436.97,327.86,-436.964,327.722,-436.895C327.582,-436.809,327.704,-436.687,327.868,-436.555C328.515,-436.128,329.172,-435.75,329.843,-435.384C331.867,-434.311,333.976,-433.457,336.182,-432.848C347.575,-429.702,360.408,-432.014,368.962,-440.513C375.68,-447.187,378.034,-456.391,378.034,-465.607C378.034,-465.968,378.46,-466.167,378.713,-466.357C380.461,-467.67,381.87,-469.242,383.174,-470.997C383.467,-471.391,383.47,-471.742,383.47,-471.886C383.47,-471.911,383.47,-471.934,383.47,-471.934C383.47,-472.081,383.468,-472.037,383.241,-471.934Z" /></g></g></g></g></g><g id="i41"><g transform="translate(546,416)"><g transform="scale(0,0)"><animateTransform repeatCount="indefinite" type="scale" attributeName="transform" dur="3s" begin="0s" calcMode="spline" values="0 0; 0 0; 1 1; 1 1" keyTimes="0; 0.6; 0.783333; 1" keySplines="0 0 1 1; 0.333 0 0.667 1; 0 0 1 1" fill="freeze" /><g transform="translate(-6,124)"><g id="i22" transform="matrix(1,0,0,1,0,0)" opacity="0.8"><path fill="url(#i2)" d="M343,-276.214C343,-229.743,305.328,-192.07,258.857,-192.07C212.386,-192.07,174.714,-229.743,174.714,-276.214C174.714,-322.685,212.386,-360.357,258.857,-360.357C305.328,-360.357,343,-322.685,343,-276.214Z" /></g><g id="i19"><path fill="url(#i3)" d="M294.793,-312.201C294.793,-279.845,268.564,-253.616,236.208,-253.616C203.852,-253.616,177.622,-279.845,177.622,-312.201C177.622,-344.557,203.852,-370.787,236.208,-370.787C268.564,-370.787,294.793,-344.557,294.793,-312.201Z" /></g><g id="i18"><path fill="#ffffff" d="M236.207,-345.115C218.036,-345.115,203.252,-330.349,203.252,-312.201C203.252,-294.053,218.036,-279.288,236.207,-279.288C254.379,-279.288,269.164,-294.052,269.164,-312.201C269.164,-330.349,254.379,-345.115,236.207,-345.115C236.207,-345.115,236.207,-345.115,236.207,-345.115ZM257.893,-329.581C261.652,-324.922,263.937,-319.037,264.042,-312.626C262.791,-312.883,257.493,-313.87,251.163,-313.87C249.12,-313.87,246.97,-313.768,244.815,-313.502C244.633,-313.945,244.451,-314.385,244.26,-314.83C243.701,-316.145,243.099,-317.45,242.475,-318.735C252.218,-322.749,256.919,-328.32,257.893,-329.581C257.893,-329.581,257.893,-329.581,257.893,-329.581ZM236.207,-339.963C243.229,-339.963,249.648,-337.354,254.551,-333.057C253.775,-331.998,249.566,-326.737,240.171,-323.188C235.822,-331.137,231.063,-337.719,229.93,-339.247C231.949,-339.715,234.05,-339.963,236.207,-339.963C236.207,-339.963,236.207,-339.963,236.207,-339.963ZM224.247,-337.265C225.207,-335.943,229.975,-329.291,234.435,-321.406C222.465,-318.259,211.835,-318.054,209.269,-318.054C209.269,-318.054,208.996,-318.054,208.996,-318.054C210.839,-326.548,216.578,-333.606,224.247,-337.265C224.247,-337.265,224.247,-337.265,224.247,-337.265ZM208.364,-312.158C208.364,-312.387,208.369,-312.616,208.376,-312.844C208.542,-312.842,208.787,-312.842,209.106,-312.842C212.561,-312.842,224.555,-313.128,236.914,-316.795C237.664,-315.328,238.379,-313.84,239.043,-312.351C238.731,-312.262,238.423,-312.172,238.117,-312.072C224.201,-307.578,216.552,-295.678,215.375,-293.734C211.014,-298.647,208.364,-305.098,208.364,-312.158C208.364,-312.158,208.364,-312.158,208.364,-312.158ZM236.207,-284.354C229.821,-284.354,223.928,-286.517,219.225,-290.143C220.021,-291.702,225.794,-302.097,241.044,-307.405C241.053,-307.409,241.064,-307.412,241.075,-307.415C244.899,-297.46,246.518,-289.104,246.962,-286.514C243.653,-285.122,240.019,-284.354,236.207,-284.354C236.207,-284.354,236.207,-284.354,236.207,-284.354ZM251.977,-289.255C251.604,-291.397,250.104,-299.228,246.641,-308.779C248.583,-309.081,250.472,-309.2,252.244,-309.2C258.064,-309.2,262.615,-307.926,263.673,-307.603C262.416,-300.019,258.073,-293.456,251.977,-289.255C251.977,-289.255,251.977,-289.255,251.977,-289.255Z" /></g></g></g></g></g><g visibility="hidden" id="i42"><animate repeatCount="indefinite" begin="0s" calcMode="discrete" dur="3s" values="hidden; visible; visible" keyTimes="0; 0.011; 1" attributeName="visibility" /><g transform="translate(546,416)"><g transform="scale(0,0)"><animateTransform repeatCount="indefinite" type="scale" attributeName="transform" dur="3s" begin="0s" calcMode="spline" values="0 0; 0 0; 1 1; 1 1" keyTimes="0; 0.677778; 0.861111; 1" keySplines="0 0 1 1; 0.333 0 0.667 1; 0 0 1 1" fill="freeze" /><g transform="translate(-6,124)"><g id="i34" transform="matrix(1,0,0,1,0,0)" opacity="0.8"><path fill="url(#i4)" d="M378.539,-75.317C378.539,-14.089,328.904,35.546,267.676,35.546C206.447,35.546,156.812,-14.089,156.812,-75.317C156.812,-136.545,206.447,-186.181,267.676,-186.181C328.904,-186.181,378.539,-136.545,378.539,-75.317Z" /></g><g id="i43"><path fill="url(#i5)" d="M316.047,-121.631C316.047,-79.992,282.292,-46.236,240.653,-46.236C199.014,-46.236,165.258,-79.992,165.258,-121.631C165.258,-163.27,199.014,-197.025,240.653,-197.025C282.292,-197.025,316.047,-163.27,316.047,-121.631Z" /></g><g id="i19"><path fill="#ffffff" d="M209.035,-135.672C209.035,-135.672,223.637,-135.672,223.637,-135.672C223.637,-135.672,223.637,-88.765,223.637,-88.765C223.637,-88.765,209.035,-88.765,209.035,-88.765C209.035,-88.765,209.035,-135.672,209.035,-135.672ZM216.338,-158.982C221.008,-158.982,224.792,-155.193,224.792,-150.534C224.792,-145.868,221.008,-142.074,216.338,-142.074C211.656,-142.074,207.873,-145.868,207.873,-150.534C207.873,-155.193,211.656,-158.982,216.338,-158.982" /></g><g id="i18"><path fill="#ffffff" d="M232.786,-135.672C232.786,-135.672,246.771,-135.672,246.771,-135.672C246.771,-135.672,246.771,-129.256,246.771,-129.256C246.771,-129.256,246.963,-129.256,246.963,-129.256C248.913,-132.947,253.669,-136.834,260.77,-136.834C275.532,-136.834,278.254,-127.125,278.254,-114.492C278.254,-114.492,278.254,-88.765,278.254,-88.765C278.254,-88.765,263.684,-88.765,263.684,-88.765C263.684,-88.765,263.684,-111.57,263.684,-111.57C263.684,-117.014,263.578,-124.01,256.106,-124.01C248.516,-124.01,247.358,-118.085,247.358,-111.968C247.358,-111.968,247.358,-88.765,247.358,-88.765C247.358,-88.765,232.786,-88.765,232.786,-88.765C232.786,-88.765,232.786,-135.672,232.786,-135.672Z" /></g></g></g></g></g><g visibility="hidden" id="i44"><animate repeatCount="indefinite" begin="0s" calcMode="discrete" dur="3s" values="hidden; visible; visible" keyTimes="0; 0.044; 1" attributeName="visibility" /><g transform="translate(546,416)"><g transform="scale(0,0)"><animateTransform repeatCount="indefinite" type="scale" attributeName="transform" dur="3s" begin="0s" calcMode="spline" values="0 0; 0 0; 1 1; 1 1" keyTimes="0; 0.711111; 0.894444; 1" keySplines="0 0 1 1; 0.333 0 0.667 1; 0 0 1 1" fill="freeze" /><g transform="translate(-6,124)"><g id="i19" transform="matrix(1,0,0,1,0,0)" opacity="0.8"><path fill="url(#i6)" d="M206.919,-363.204C206.919,-317.804,170.114,-281,124.714,-281C79.314,-281,42.51,-317.804,42.51,-363.204C42.51,-408.604,79.314,-445.409,124.714,-445.409C170.114,-445.409,206.919,-408.604,206.919,-363.204Z" /></g><g id="i45"><g id="i46"><path fill="url(#i7)" d="M160.581,-395.953C160.581,-426.828,135.552,-451.857,104.677,-451.857C73.802,-451.857,48.773,-426.828,48.773,-395.953C48.773,-368.049,69.216,-344.922,95.942,-340.728C95.942,-340.728,95.942,-379.793,95.942,-379.793C95.942,-379.793,81.748,-379.793,81.748,-379.793C81.748,-379.793,81.748,-395.953,81.748,-395.953C81.748,-395.953,95.942,-395.953,95.942,-395.953C95.942,-395.953,95.942,-408.269,95.942,-408.269C95.942,-422.28,104.288,-430.019,117.058,-430.019C123.174,-430.019,129.572,-428.927,129.572,-428.927C129.572,-428.927,129.572,-415.17,129.572,-415.17C129.572,-415.17,122.522,-415.17,122.522,-415.17C115.577,-415.17,113.412,-410.86,113.412,-406.439C113.412,-406.439,113.412,-395.953,113.412,-395.953C113.412,-395.953,128.917,-395.953,128.917,-395.953C128.917,-395.953,126.438,-379.793,126.438,-379.793C126.438,-379.793,113.412,-379.793,113.412,-379.793C113.412,-379.793,113.412,-340.728,113.412,-340.728C140.138,-344.922,160.581,-368.049,160.581,-395.953Z" /></g><g id="i18"><path fill="#ffffff" d="M126.438,-379.793C126.438,-379.793,128.917,-395.953,128.917,-395.953C128.917,-395.953,113.412,-395.953,113.412,-395.953C113.412,-395.953,113.412,-406.439,113.412,-406.439C113.412,-410.86,115.577,-415.17,122.522,-415.17C122.522,-415.17,129.572,-415.17,129.572,-415.17C129.572,-415.17,129.572,-428.927,129.572,-428.927C129.572,-428.927,123.174,-430.019,117.058,-430.019C104.288,-430.019,95.942,-422.28,95.942,-408.269C95.942,-408.269,95.942,-395.953,95.942,-395.953C95.942,-395.953,81.748,-395.953,81.748,-395.953C81.748,-395.953,81.748,-379.793,81.748,-379.793C81.748,-379.793,95.942,-379.793,95.942,-379.793C95.942,-379.793,95.942,-340.728,95.942,-340.728C98.788,-340.281,101.705,-340.049,104.677,-340.049C107.649,-340.049,110.566,-340.281,113.412,-340.728C113.412,-340.728,113.412,-379.793,113.412,-379.793C113.412,-379.793,126.438,-379.793,126.438,-379.793Z" /></g></g></g></g></g></g><g opacity="0.5" id="i47"><g transform="translate(546,416)"><g transform="scale(0,0)"><animateTransform repeatCount="indefinite" type="scale" attributeName="transform" dur="3s" begin="0s" calcMode="spline" values="0 0; 0 0; 1 1; 1 1" keyTimes="0; 0.594444; 0.777778; 1" keySplines="0 0 1 1; 0.333 0 0.667 1; 0 0 1 1" fill="freeze" /><g transform="translate(-6,124)"><g id="i22" transform="matrix(1,0,0,1,0,0)" opacity="0.8"><path fill="url(#i8)" d="M480.347,-187.805C480.347,-148.024,448.097,-115.775,408.316,-115.775C368.534,-115.775,336.286,-148.024,336.286,-187.805C336.286,-227.586,368.534,-259.836,408.316,-259.836C448.097,-259.836,480.347,-227.586,480.347,-187.805Z" /></g><g id="i19"><path fill="url(#i9)" d="M439.744,-215.526C439.744,-188.472,417.813,-166.54,390.759,-166.54C363.705,-166.54,341.773,-188.472,341.773,-215.526C341.773,-242.58,363.705,-264.511,390.759,-264.511C417.813,-264.511,439.744,-242.58,439.744,-215.526Z" /></g><g id="i18"><path fill="#ffffff" d="M360.799,-199.699C360.799,-200.012,360.799,-200.325,360.799,-200.638C361.184,-201.084,361.591,-201.464,362.216,-201.588C367.147,-202.565,370.445,-205.709,372.933,-209.836C375.025,-213.306,374.69,-214.099,370.835,-215.464C370.614,-215.542,370.387,-215.606,370.171,-215.695C369.338,-216.038,368.513,-216.403,367.825,-217.001C366.099,-218.501,367.119,-220.663,369.155,-221.153C370.643,-221.511,371.939,-220.554,373.383,-220.374C374.348,-220.254,374.733,-220.579,374.615,-221.607C374.31,-224.254,374.318,-226.916,374.442,-229.574C374.679,-234.643,377.173,-238.503,381.396,-241.006C387.562,-244.66,394.007,-244.706,400.217,-241.063C404.093,-238.79,406.595,-235.347,407.138,-230.732C407.491,-227.728,407.351,-224.721,407.114,-221.715C407.011,-220.41,407.278,-220.17,408.569,-220.472C410.171,-220.847,411.515,-221.674,413.18,-220.942C414.071,-220.551,414.848,-219.708,414.824,-218.735C414.808,-218.068,414.419,-217.455,413.916,-217.017C413.146,-216.347,412.143,-215.975,411.209,-215.597C410.485,-215.304,409.733,-215.076,409.027,-214.745C407.571,-214.063,407.153,-213.161,407.834,-211.72C410.193,-206.734,413.659,-202.948,419.266,-201.633C419.95,-201.473,420.499,-201.192,420.914,-200.638C420.914,-200.325,420.914,-200.012,420.914,-199.699C420.383,-198.605,419.432,-198.004,418.353,-197.595C417.258,-197.18,416.156,-196.715,414.978,-196.639C413.353,-196.535,412.498,-195.826,412.25,-194.134C412.014,-192.524,411.529,-192.297,409.888,-192.429C409.5,-192.46,409.114,-192.532,408.729,-192.6C405.515,-193.171,402.498,-192.845,399.855,-190.711C399.339,-190.295,398.767,-189.947,398.209,-189.585C393.707,-186.664,389.095,-186.329,384.392,-189.072C383.11,-189.819,381.895,-190.681,380.651,-191.494C379.622,-192.167,378.515,-192.543,377.279,-192.73C375.33,-193.025,373.463,-192.588,371.566,-192.379C370.591,-192.271,369.649,-192.549,369.594,-193.558C369.461,-195.988,367.971,-196.583,365.927,-196.807C364.975,-196.912,364.034,-197.298,363.137,-197.673C362.157,-198.083,361.266,-198.664,360.799,-199.699Z" /></g></g></g></g></g><g opacity="0.6" id="i48"><g transform="translate(546,416)"><g transform="scale(0,0)"><animateTransform repeatCount="indefinite" type="scale" attributeName="transform" dur="3s" begin="0s" calcMode="spline" values="0 0; 0 0; 1 1; 1 1" keyTimes="0; 0.611111; 0.794444; 1" keySplines="0 0 1 1; 0.333 0 0.667 1; 0 0 1 1" fill="freeze" /><g transform="translate(-6,124)"><g id="i22" transform="matrix(1,0,0,1,0,0)" opacity="0.8"><path fill="url(#i10)" d="M498.335,26.195C498.335,65.051,466.836,96.55,427.98,96.55C389.124,96.55,357.625,65.051,357.625,26.195C357.625,-12.661,389.124,-44.161,427.98,-44.161C466.836,-44.161,498.335,-12.661,498.335,26.195Z" /></g><g id="i19"><path fill="url(#i11)" d="M458.028,-1.526C458.028,25.528,436.096,47.46,409.042,47.46C381.988,47.46,360.057,25.528,360.057,-1.526C360.057,-28.58,381.988,-50.511,409.042,-50.511C436.096,-50.511,458.028,-28.58,458.028,-1.526Z" /></g><g id="i18"><path fill="#ffffff" d="M435.268,-8.649C435.268,-15.145,430.001,-20.411,423.505,-20.411C423.505,-20.411,393.427,-20.411,393.427,-20.411C386.931,-20.411,381.664,-15.145,381.664,-8.649C381.664,-8.649,381.664,5.349,381.664,5.349C381.664,11.845,386.931,17.112,393.427,17.112C393.427,17.112,423.505,17.112,423.505,17.112C430.001,17.112,435.268,11.845,435.268,5.349C435.268,5.349,435.268,-8.649,435.268,-8.649ZM417.579,-0.601C417.579,-0.601,404.091,6.072,404.091,6.072C403.562,6.358,401.766,5.975,401.766,5.374C401.766,5.374,401.766,-8.324,401.766,-8.324C401.766,-8.933,403.577,-9.315,404.106,-9.013C404.106,-9.013,417.017,-1.989,417.017,-1.989C417.558,-1.681,418.127,-0.897,417.579,-0.601Z" /></g></g></g></g></g><g id="i49"><g transform="translate(546,416)"><g transform="scale(0,0)"><animateTransform repeatCount="indefinite" type="scale" attributeName="transform" dur="3s" begin="0s" calcMode="spline" values="0 0; 0 0; 1 1; 1 1" keyTimes="0; 0.594444; 0.777778; 1" keySplines="0 0 1 1; 0.333 0 0.667 1; 0 0 1 1" fill="freeze" /><g transform="translate(-6,124)"><g id="i43" transform="matrix(1,0,0,1,0,0)" opacity="0.8"><path fill="url(#i12)" d="M475.931,233.123C475.931,269.191,446.692,298.429,410.624,298.429C374.556,298.429,345.318,269.191,345.318,233.123C345.318,197.055,374.556,167.817,410.624,167.817C446.692,167.817,475.931,197.055,475.931,233.123Z" /></g><g id="i46"><path fill="url(#i13)" d="M436.042,206.548C436.042,231.66,415.684,252.018,390.572,252.018C365.46,252.018,345.102,231.66,345.102,206.548C345.102,181.436,365.46,161.079,390.572,161.079C415.684,161.079,436.042,181.436,436.042,206.548Z" /></g><g id="i18"><path fill="#ffffff" d="M387.075,216.438C387.028,216.597,386.985,216.73,386.95,216.864C384.923,224.806,384.698,226.569,382.615,230.257C381.621,232.009,380.503,233.671,379.266,235.26C379.126,235.44,378.996,235.672,378.716,235.615C378.411,235.55,378.386,235.276,378.353,235.031C378.019,232.618,377.836,230.198,377.916,227.762C378.021,224.588,378.414,223.499,382.505,206.295C382.565,206.033,382.498,205.815,382.41,205.578C381.431,202.936,381.237,200.255,382.092,197.538C383.944,191.67,390.596,191.22,391.76,196.062C392.476,199.056,390.58,202.976,389.125,208.768C387.92,213.548,393.546,216.945,398.355,213.456C402.789,210.24,404.51,202.529,404.183,197.064C403.538,186.168,391.591,183.813,384.01,187.322C375.32,191.34,373.345,202.111,377.268,207.034C377.766,207.661,378.148,208.043,377.984,208.678C377.731,209.664,377.509,210.656,377.237,211.637C377.034,212.366,376.423,212.632,375.686,212.332C374.24,211.748,373.034,210.826,372.057,209.614C368.725,205.488,367.771,197.326,372.177,190.417C377.058,182.762,386.137,179.666,394.426,180.605C404.326,181.731,410.584,188.496,411.756,196.17C412.29,199.666,411.906,208.287,406.999,214.379C401.353,221.381,392.201,221.844,387.979,217.547C387.653,217.218,387.393,216.832,387.075,216.438Z" /></g></g></g></g></g><g visibility="hidden" id="i50"><animate repeatCount="indefinite" begin="0s" calcMode="discrete" dur="3s" values="hidden; visible; visible" keyTimes="0; 0.067; 1" attributeName="visibility" /><g transform="translate(546,416)"><g transform="scale(0,0)"><animateTransform repeatCount="indefinite" type="scale" attributeName="transform" dur="3s" begin="0s" calcMode="spline" values="0 0; 0 0; 1 1; 1 1" keyTimes="0; 0.733333; 0.916667; 1" keySplines="0 0 1 1; 0.333 0 0.667 1; 0 0 1 1" fill="freeze" /><g transform="translate(-6,124)"><g id="i34" transform="matrix(1,0,0,1,0,0)" opacity="0.8"><path fill="url(#i14)" d="M350,98.195C350,137.051,318.501,168.55,279.645,168.55C240.789,168.55,209.289,137.051,209.289,98.195C209.289,59.339,240.789,27.839,279.645,27.839C318.501,27.839,350,59.339,350,98.195Z" /></g><g id="i22"><path fill="url(#i15)" d="M308.36,70.474C308.36,97.528,286.428,119.46,259.374,119.46C232.32,119.46,210.389,97.528,210.389,70.474C210.389,43.42,232.32,21.489,259.374,21.489C286.428,21.489,308.36,43.42,308.36,70.474Z" /></g><g id="i19"><path fill="#ffffff" d="M232.908,98.195C232.908,98.195,236.993,82.956,236.993,82.956C234.681,78.784,233.463,74.109,233.463,69.364C233.463,53.85,246.086,41.227,261.6,41.227C277.115,41.227,289.737,53.85,289.737,69.364C289.737,84.879,277.115,97.501,261.6,97.501C256.942,97.501,252.342,96.324,248.225,94.091C248.225,94.091,232.908,98.195,232.908,98.195ZM248.987,88.381C248.987,88.381,249.951,88.956,249.951,88.956C253.492,91.066,257.521,92.182,261.6,92.182C274.182,92.182,284.418,81.947,284.418,69.364C284.418,56.781,274.182,46.545,261.6,46.545C249.018,46.545,238.782,56.781,238.782,69.364C238.782,73.519,239.936,77.609,242.119,81.194C242.119,81.194,242.71,82.166,242.71,82.166C242.71,82.166,240.431,90.674,240.431,90.674C240.431,90.674,248.987,88.381,248.987,88.381Z" /></g><g id="i18"><path fill="#ffffff" d="M272.067,73.277C270.909,72.584,269.402,71.811,268.037,72.369C266.99,72.797,266.322,74.435,265.644,75.272C265.296,75.702,264.88,75.768,264.346,75.553C260.417,73.988,257.406,71.365,255.238,67.751C254.871,67.189,254.936,66.747,255.379,66.226C256.034,65.455,256.857,64.58,257.034,63.54C257.211,62.501,256.724,61.285,256.294,60.36C255.745,59.177,255.131,57.491,253.947,56.822C252.857,56.207,251.424,56.552,250.454,57.342C248.78,58.706,247.972,60.841,247.996,62.959C248.003,63.561,248.077,64.161,248.217,64.742C248.555,66.139,249.2,67.443,249.927,68.683C250.475,69.618,251.071,70.525,251.713,71.398C253.815,74.253,256.429,76.734,259.456,78.588C260.969,79.514,262.598,80.328,264.285,80.885C266.177,81.51,267.863,82.161,269.906,81.773C272.045,81.367,274.155,80.042,275.004,77.981C275.255,77.371,275.381,76.691,275.24,76.046C274.949,74.713,273.145,73.922,272.067,73.277Z" /></g></g></g></g></g></svg>